<svg fill="none" xmlns="http://www.w3.org/currentColor/svg" viewBox="0 0 53 57">
  <path d="M9.817 7.057c.728-3.775 5.267-5.35 8.177-2.837l30.89 26.677c2.917 2.52 2.007 7.252-1.636 8.51L8.638 52.745c-3.64 1.257-7.274-1.895-6.544-5.673L9.817 7.057Z" stroke="currentColor"/>
  <path d="M18.634 37.6a5.547 5.547 0 1 1-3.48-10.533 5.547 5.547 0 0 1 3.48 10.533Zm-2.863-8.775a3.684 3.684 0 1 0 2.19 7.035 3.684 3.684 0 0 0-2.19-7.035ZM24.668 29.798a5.546 5.546 0 1 0 10.545-3.44 5.546 5.546 0 0 0-10.545 3.44ZM27.418 19.293a1.305 1.305 0 1 0 2.48-.81 1.305 1.305 0 0 0-2.48.81ZM11.29 24.553a1.305 1.305 0 1 0 2.481-.81 1.305 1.305 0 0 0-2.481.81ZM20.163 24.403a1.305 1.305 0 1 0 2.482-.81 1.305 1.305 0 0 0-2.482.81ZM33.084 36.662a1.305 1.305 0 1 0 2.481-.81 1.305 1.305 0 0 0-2.481.81ZM16.955 41.923a1.305 1.305 0 1 0 2.481-.81 1.305 1.305 0 0 0-2.481.81ZM24.31 37.12a1.305 1.305 0 1 0 2.482-.809 1.305 1.305 0 0 0-2.481.81ZM7.299 35.464a1.305 1.305 0 1 0 2.48-.81 1.305 1.305 0 0 0-2.48.81Z" fill="currentColor"/>
  <path d="M16.03 25.41a5.547 5.547 0 0 1 10.545-3.44l-1.054.343a4.436 4.436 0 0 0-7.104-1.995 4.438 4.438 0 0 0-1.333 4.747l-1.054.344Zm4.25 13.026a5.546 5.546 0 1 0 10.544-3.44l-1.055.344a4.437 4.437 0 1 1-8.436 2.752l-1.055.344h.001Z" fill="currentColor"/>
</svg>