<svg width="57" height="57" fill="none" xmlns="http://www.w3.org/2000/svg">
  <path d="M9.363 8.485c.728-3.775 5.267-5.35 8.177-2.837L48.43 32.325c2.917 2.519 2.007 7.252-1.636 8.51L8.183 54.173C4.544 55.43.91 52.278 1.64 48.5L9.363 8.485Z" stroke="#FFFFFF" fill="transparent"/>
  <path d="M18.18 39.028a5.546 5.546 0 1 1-3.44-10.545 5.546 5.546 0 0 1 3.44 10.545Zm-2.863-8.775a3.684 3.684 0 1 0 2.285 7.004 3.684 3.684 0 0 0-2.285-7.004Z" fill="#FFFFFF"/>
  <circle cx="29.486" cy="29.506" r="5.546" transform="rotate(71.934 29.486 29.506)" fill="#FFFFFF"/>
  <circle cx="28.204" cy="20.316" r="1.305" transform="rotate(71.934 28.204 20.316)" fill="#FFFFFF"/>
  <circle cx="12.076" cy="25.576" r="1.305" transform="rotate(71.934 12.076 25.576)" fill="#FFFFFF"/>
  <circle cx="20.949" cy="25.427" r="1.305" transform="rotate(71.934 20.95 25.427)" fill="#FFFFFF"/>
  <circle cx="33.87" cy="37.685" r="1.305" transform="rotate(71.934 33.87 37.685)" fill="#FFFFFF"/>
  <circle cx="17.741" cy="42.946" r="1.305" transform="rotate(71.934 17.741 42.946)" fill="#FFFFFF"/>
  <circle cx="25.097" cy="38.144" r="1.305" transform="rotate(71.934 25.097 38.144)" fill="#FFFFFF"/>
  <circle cx="8.085" cy="36.487" r="1.305" transform="rotate(71.934 8.085 36.487)" fill="#FFFFFF"/>
  <path d="M15.575 26.837a5.546 5.546 0 0 1 10.546-3.44l-1.054.344a4.437 4.437 0 0 0-8.437 2.752l-1.054.344ZM19.825 39.864a5.546 5.546 0 1 0 10.545-3.44l-1.055.344a4.437 4.437 0 1 1-8.436 2.752l-1.055.344Z" fill="#FFFFFF"/>
</svg>