<svg width="21" height="26" viewBox="0 0 21 26" fill="none" xmlns="http://www.w3.org/2000/svg">
<path d="M4.13755 14.8006H0.546468V18.5205H4.13755V14.8006Z" fill="#263238"/>
<path d="M9.25093 1.54338H1.32714V6.56925L13.7398 16.067L9.25093 1.54338Z" fill="#263238"/>
<path d="M13.6617 1.54338H11.1636L16.1989 18.204H17.7212V5.69863H15.6915V3.71994H13.6617V1.54338Z" fill="#263238"/>
<path d="M15.0669 2.73059V0.672755H17.0967V2.73059H19.2045V4.78843H17.0967V2.73059H15.0669Z" fill="#263238"/>
<path d="M17.7212 2.09741V0H19.79V2.09741H17.7212Z" fill="#263238"/>
<path d="M12.3346 24.6941V21.9239H15.145V24.6941H12.3346Z" fill="#263238"/>
<path d="M0 24.8919V20.8554H2.65428V21.2511H1.171V22.6362H2.45911V23.032H1.171V24.8919H0Z" fill="#263238"/>
<path d="M3.00558 24.8919V20.8554H5.62082V21.2511H4.09851V22.5175H5.30855V22.9528H4.09851V24.4962H5.81599V24.8919H3.00558Z" fill="#263238"/>
<path d="M11.671 21.172V20.7367C11.671 20.7367 10.0316 21.172 10.0316 23.309C10.0316 25.446 11.671 26 11.671 26V25.723C11.671 25.723 10.9294 24.9711 10.9294 23.309C10.9294 21.6469 11.671 21.172 11.671 21.172Z" fill="#263238"/>
<path d="M15.8085 20.7367V21.172C15.8085 21.172 16.6283 21.4886 16.6283 23.309C16.6283 25.1294 15.8085 25.723 15.8085 25.723V26C15.8085 26 17.526 25.169 17.526 23.309C17.526 21.449 15.8085 20.7367 15.8085 20.7367Z" fill="#263238"/>
<path d="M18.7361 24.8919V21.2511H17.7212V20.8554H21V21.2511H20.0242V24.8919H18.7361Z" fill="#263238"/>
<path fill-rule="evenodd" clip-rule="evenodd" d="M6.20632 20.8554V24.8919H8.23606C8.23606 24.8919 9.60223 24.8128 9.60223 22.8341C9.60223 20.8554 8.23606 20.8554 8.23606 20.8554H6.20632ZM7.37732 24.5753V21.172H7.88476C7.88476 21.172 8.43123 21.3699 8.43123 22.8341C8.43123 24.2983 7.88476 24.5753 7.88476 24.5753H7.37732Z" fill="#263238"/>
<path d="M1.32714 8.66667L13.6617 18.204H4.76208V14.1674H1.32714V8.66667Z" fill="#263238"/>
</svg>
